<?xml version="1.0" encoding="UTF-8"?>
<svg version="1.1" xmlns="http://www.w3.org/2000/svg" width="334" height="334">
<path d="M0 0 C2.89146008 -0.03748188 5.78296858 -0.06392651 8.67455959 -0.08901662 C10.6623756 -0.1107267 12.64999921 -0.1482537 14.63757038 -0.18626219 C16.41932415 -0.19986391 16.41932415 -0.19986391 18.23707294 -0.21374041 C19.27054356 -0.22872985 20.30401417 -0.24371929 21.36880207 -0.25916296 C24.6486596 0.13943114 26.47129539 1.25026299 29.18604755 3.08321089 C30.85760501 3.7301802 32.54660006 4.33352913 34.24854755 4.89571089 C44.77510349 8.64005629 54.72284759 13.68624084 63.18604755 21.08321089 C63.18604755 21.74321089 63.18604755 22.40321089 63.18604755 23.08321089 C64.17604755 23.41321089 65.16604755 23.74321089 66.18604755 24.08321089 C66.18604755 24.74321089 66.18604755 25.40321089 66.18604755 26.08321089 C66.84604755 26.08321089 67.50604755 26.08321089 68.18604755 26.08321089 C69.89531568 28.09026091 71.48793778 30.09850099 73.06104755 32.20821089 C73.49546162 32.77797651 73.92987568 33.34774214 74.3774538 33.93477339 C81.5530796 43.41608075 85.24153935 51.18240752 86.18604755 63.08321089 C86.84604755 63.08321089 87.50604755 63.08321089 88.18604755 63.08321089 C89.16756229 70.4799059 89.36930576 77.75113995 89.37354755 85.20821089 C89.38579365 86.3490312 89.39803974 87.48985151 89.41065693 88.66524214 C89.42094979 94.57334373 89.16455106 99.5132934 87.18604755 105.08321089 C86.70471531 106.89513699 86.22539835 108.70760023 85.74854755 110.52071089 C84.48958572 115.17116173 82.96015397 119.60570422 81.18604755 124.08321089 C80.52604755 124.08321089 79.86604755 124.08321089 79.18604755 124.08321089 C78.85604755 126.06321089 78.52604755 128.04321089 78.18604755 130.08321089 C77.52604755 130.08321089 76.86604755 130.08321089 76.18604755 130.08321089 C75.84573505 131.16602339 75.84573505 131.16602339 75.49854755 132.27071089 C73.93773743 135.61530402 71.88291885 137.59925048 69.18604755 140.08321089 C70.36056225 142.85933652 71.85572769 144.94823779 73.81104755 147.20821089 C76.18604755 150.08321089 76.18604755 150.08321089 76.18604755 152.08321089 C76.84604755 152.08321089 77.50604755 152.08321089 78.18604755 152.08321089 C82.79127804 159.15552913 86.18604755 167.58017458 86.18604755 176.08321089 C86.84604755 176.08321089 87.50604755 176.08321089 88.18604755 176.08321089 C89.35089604 183.4605846 89.33427892 190.7509411 89.31104755 198.20821089 C89.31491474 199.45731245 89.31878193 200.70641401 89.3227663 201.99336714 C89.32083271 203.80514448 89.32083271 203.80514448 89.31886005 205.65352339 C89.31773212 206.74423139 89.31660419 207.8349394 89.31544209 208.95869917 C89.18630945 212.07688688 88.76584557 215.01955123 88.18604755 218.08321089 C87.52604755 218.08321089 86.86604755 218.08321089 86.18604755 218.08321089 C86.14866474 218.72387495 86.11128193 219.36453901 86.0727663 220.02461714 C85.64051059 225.71174623 84.69137223 229.96817301 82.18604755 235.08321089 C81.85604755 236.07321089 81.52604755 237.06321089 81.18604755 238.08321089 C80.52604755 238.08321089 79.86604755 238.08321089 79.18604755 238.08321089 C79.07196552 238.90498823 79.07196552 238.90498823 78.9555788 239.74336714 C77.90020503 242.95234627 76.05183629 244.95025888 73.87354755 247.52071089 C73.09366474 248.44754682 72.31378193 249.37438276 71.5102663 250.32930464 C70.74327412 251.2380937 69.97628193 252.14688276 69.18604755 253.08321089 C68.55698505 253.91981245 67.92792255 254.75641401 67.27979755 255.61836714 C64.80899453 258.52709234 62.03159889 260.80000708 58.99854755 263.08321089 C58.41975849 263.5210893 57.84096943 263.95896772 57.2446413 264.41011518 C39.53601883 277.60549846 19.98167097 281.51762923 -1.64451885 281.57906049 C-3.39064899 281.59466389 -5.1367686 281.61148403 -6.8828764 281.6294145 C-11.58308961 281.67373649 -16.28322896 281.69971458 -20.98359632 281.72104806 C-24.92245902 281.7405368 -28.86123834 281.76893209 -32.80004632 281.79719067 C-42.09597621 281.86364323 -51.39190405 281.91489824 -60.68797588 281.9565019 C-70.2505946 281.99956264 -79.81278814 282.06823565 -89.37515223 282.1494931 C-97.61583042 282.21861973 -105.85650854 282.27187462 -114.09737623 282.31254292 C-119.00605172 282.33691753 -123.91450613 282.36712498 -128.82303524 282.41263098 C-133.43770362 282.45471659 -138.05205882 282.47684624 -142.66690922 282.48412031 C-144.35188028 282.49001068 -146.03684474 282.50270864 -147.72170353 282.52303213 C-159.85464999 282.66346814 -172.58071499 281.99884312 -181.81395245 273.08321089 C-189.60571547 264.73837909 -192.28029062 256.62102702 -192.2016325 245.32306379 C-192.20971081 243.91117028 -192.20971081 243.91117028 -192.21795231 242.47075367 C-192.23218006 239.33875148 -192.22514099 236.20717503 -192.21800518 233.07515424 C-192.22371135 230.8208224 -192.23067657 228.56649344 -192.23880291 226.31216902 C-192.25671946 220.20487978 -192.25556902 214.09773433 -192.24986053 207.99042672 C-192.24676732 202.88833979 -192.25286242 197.78628043 -192.25889927 192.68419743 C-192.27373911 179.96093611 -192.27013506 167.23777638 -192.25803597 154.51452131 C-192.24809919 143.47560637 -192.26105506 132.43685894 -192.28497016 121.39796983 C-192.30937348 110.04777965 -192.31856681 98.69768952 -192.31231743 87.34746552 C-192.30894678 80.98126647 -192.31137067 74.61520591 -192.32856846 68.24902624 C-192.34403055 62.26449449 -192.34008986 56.28028297 -192.32126331 50.29576391 C-192.31757583 48.10120162 -192.32069051 45.90661564 -192.3311491 43.71207517 C-192.34434895 40.71313916 -192.33281992 37.71526491 -192.31515789 34.71637434 C-192.3247629 33.85089804 -192.3343679 32.98542174 -192.34426397 32.09371889 C-192.27296642 26.19801235 -190.85590763 22.11235908 -187.81395245 17.08321089 C-187.35633526 16.3059062 -186.89871807 15.52860151 -186.4272337 14.72774214 C-182.69624922 9.47299222 -178.64558545 6.72377431 -172.81395245 4.08321089 C-171.91587872 3.57432829 -171.01780499 3.06544569 -170.0925169 2.5411424 C-164.05922811 -0.01056702 -157.34755874 0.64310589 -150.91551495 0.65083784 C-149.39828987 0.6418108 -147.88107208 0.63148127 -146.36386395 0.61995405 C-142.24867255 0.59239336 -138.13361949 0.58309506 -134.01834774 0.57709998 C-129.67794484 0.56766354 -125.33764236 0.54143248 -120.99730206 0.51709455 C-112.74714981 0.47339213 -104.49701696 0.44489443 -96.24678421 0.42177117 C-86.98087311 0.39503659 -77.71507202 0.35092414 -68.44923687 0.30548245 C-57.09573843 0.25028328 -45.74221912 0.19956017 -34.38865948 0.15872663 C-33.58601036 0.15582154 -32.78336124 0.15291645 -31.95638943 0.14992332 C-28.04098995 0.13637315 -24.1256123 0.12558768 -20.21019268 0.1201877 C-18.70327524 0.11791976 -17.19635792 0.11557413 -15.68944073 0.11314863 C-14.58718843 0.11139392 -14.58718843 0.11139392 -13.46266842 0.10960376 C-8.97459707 0.09886579 -4.48767428 0.06022533 0 0 Z M-14.81395245 66.08321089 C-16.29895245 67.35164839 -16.29895245 67.35164839 -17.81395245 68.64571089 C-22.83095617 74.76018418 -21.10485264 85.29924394 -20.56395245 92.83321089 C-19.68605793 99.39986185 -16.99375401 103.39732363 -11.81395245 107.45821089 C-9.17470658 109.38609752 -7.03027762 110.46579132 -3.81395245 111.08321089 C-3.81395245 111.74321089 -3.81395245 112.40321089 -3.81395245 113.08321089 C3.5697331 115.18798562 10.39410127 114.74041273 17.18604755 111.08321089 C24.76756913 106.75091284 29.19358691 101.16285463 32.18604755 93.08321089 C32.57792255 92.21696089 32.96979755 91.35071089 33.37354755 90.45821089 C35.56006297 84.06685814 32.82655372 78.89804395 30.18604755 73.08321089 C28.72941821 70.08778793 28.72941821 70.08778793 27.18604755 68.08321089 C26.52604755 68.08321089 25.86604755 68.08321089 25.18604755 68.08321089 C24.95917255 67.50571089 24.73229755 66.92821089 24.49854755 66.33321089 C21.00036128 60.33632013 14.51994194 58.0785411 8.18604755 56.08321089 C-1.16197137 54.77448824 -8.12807202 60.33972122 -14.81395245 66.08321089 Z " fill="#FE8B39" transform="translate(220.8139524459839,27.91678911447525)"/>
<path d="M0 0 C0.66 0 1.32 0 2 0 C0.95738487 3.1278454 -0.20102405 5.25686406 -2.25 7.875 C-4.93936083 11.49283064 -6.59220687 15.46243217 -8.25 19.625 C-8.50813477 20.27065918 -8.76626953 20.91631836 -9.03222656 21.58154297 C-10.36466576 25.02441682 -11.4131671 28.3532527 -12 32 C-12.66 32 -13.32 32 -14 32 C-15.17260457 57.52275866 -15.17260457 57.52275866 -9 82 C-8.70480469 82.70576172 -8.40960938 83.41152344 -8.10546875 84.13867188 C-4.5179663 92.41354891 -0.07537914 99.39689615 6.1875 105.88671875 C7.08818459 106.83555435 7.08818459 106.83555435 8.00706482 107.80355835 C15.88236516 116.05085755 23.97719808 124.0846494 32.0625 132.125 C33.64281632 133.70028191 35.22289554 135.27580172 36.80273438 136.8515625 C40.30060097 140.33962145 43.80103623 143.82508375 47.30271912 147.30931091 C48.79854618 148.79932857 50.29135531 150.29237462 51.78369141 151.78588867 C53.54952489 153.5499715 55.32465338 155.30211826 57.11328125 157.04296875 C58.17973223 158.09110033 59.24613804 159.13927786 60.3125 160.1875 C60.86228516 160.72052734 61.41207031 161.25355469 61.97851562 161.80273438 C63.35715678 163.16424956 64.68339727 164.57840502 66 166 C66 166.66 66 167.32 66 168 C64.55651273 169.20850097 63.10877792 170.41240781 61.63671875 171.5859375 C59.63320577 173.31689621 58.06400478 175.32196801 56.421875 177.390625 C54.1464869 179.96606427 51.50873962 182.09976055 48.8671875 184.2890625 C46.91258863 185.96775394 46.91258863 185.96775394 45.3828125 188.2109375 C44.69832031 189.09652344 44.69832031 189.09652344 44 190 C43.34 190 42.68 190 42 190 C42 190.66 42 191.32 42 192 C40.42578125 193.55078125 40.42578125 193.55078125 38.3125 195.3125 C33.14127774 199.72030808 28.60004391 204.36300634 24.33203125 209.64453125 C23.89246094 210.09183594 23.45289063 210.53914062 23 211 C22.34 211 21.68 211 21 211 C21 211.66 21 212.32 21 213 C20.34 213 19.68 213 19 213 C18.67 213.99 18.34 214.98 18 216 C16.546875 217.39453125 16.546875 217.39453125 14.75 218.8125 C11.38799192 221.57879586 8.78295469 224.64618281 6 228 C5.030625 228.804375 4.06125 229.60875 3.0625 230.4375 C0.19319231 232.83834929 -2.00394181 235.24306943 -4.3125 238.15625 C-10.34283056 244.7449445 -10.34283056 244.7449445 -15.95036316 245.60800171 C-17.46447095 245.62538904 -18.97905174 245.61555594 -20.49291992 245.58349609 C-21.3246875 245.58583252 -22.15645508 245.58816895 -23.01342773 245.59057617 C-25.75308827 245.592186 -28.49104785 245.55819 -31.23046875 245.5234375 C-33.14609674 245.51664093 -35.06173313 245.51192305 -36.97737122 245.50918579 C-42.01880154 245.49578542 -47.05952584 245.45152995 -52.10070801 245.40161133 C-56.19287248 245.36633265 -60.28496416 245.35314914 -64.37725353 245.34119225 C-69.28670209 245.32631517 -74.19607786 245.30117519 -79.10546875 245.2734375 C-80.03040823 245.26852673 -80.95534771 245.26361595 -81.90831566 245.25855637 C-110.97920377 245.07774288 -110.97920377 245.07774288 -118.06640625 237.91015625 C-129.41475117 225.70916287 -127.14243339 210.59182165 -127.09765625 194.89453125 C-127.09578797 192.95969174 -127.09436601 191.02485175 -127.09336853 189.0900116 C-127.08957561 184.03159243 -127.07977335 178.97320261 -127.06866455 173.91479492 C-127.0583806 168.73942461 -127.05385603 163.56404949 -127.04882812 158.38867188 C-127.03814777 148.25910179 -127.02111072 138.12955335 -127 128 C-126.01 128 -125.02 128 -124 128 C-123.9175 127.236875 -123.835 126.47375 -123.75 125.6875 C-122.84730645 122.45284809 -121.86406539 121.64900735 -119 120 C-118.34 120 -117.68 120 -117 120 C-117 119.34 -117 118.68 -117 118 C-115.5390625 116.4921875 -115.5390625 116.4921875 -113.625 114.875 C-112.99851562 114.33617187 -112.37203125 113.79734375 -111.7265625 113.2421875 C-110 112 -110 112 -108 112 C-107.731875 111.4225 -107.46375 110.845 -107.1875 110.25 C-105.97070811 107.94449957 -104.69666121 105.97943808 -103 104 C-102.34 104 -101.68 104 -101 104 C-101 103.34 -101 102.68 -101 102 C-100.195625 101.525625 -99.39125 101.05125 -98.5625 100.5625 C-95.7081924 99.20016328 -95.7081924 99.20016328 -95 96 C-94.01 96 -93.02 96 -92 96 C-92 95.34 -92 94.68 -92 94 C-90.34997172 92.64613064 -88.6825613 91.31321858 -87 90 C-86.67 89.34 -86.34 88.68 -86 88 C-85.34 88 -84.68 88 -84 88 C-84 87.34 -84 86.68 -84 86 C-83.34 86 -82.68 86 -82 86 C-81.7525 85.21625 -81.505 84.4325 -81.25 83.625 C-79.80254826 80.58535135 -78.97357402 80.30093863 -76 79 C-75.01 77.515 -75.01 77.515 -74 76 C-73.34 76 -72.68 76 -72 76 C-71.773125 75.46375 -71.54625 74.9275 -71.3125 74.375 C-69.54429911 71.17539839 -67.46329797 68.70962777 -65 66 C-64.34 66 -63.68 66 -63 66 C-63 65.34 -63 64.68 -63 64 C-62.34 64 -61.68 64 -61 64 C-60.938125 63.443125 -60.87625 62.88625 -60.8125 62.3125 C-58.83071512 56.67203536 -52.72436772 53.19229305 -48.1484375 49.7109375 C-46.33058002 48.2632619 -44.72511608 46.80269746 -43.125 45.125 C-41 43 -41 43 -38 42 C-37.731875 41.2575 -37.46375 40.515 -37.1875 39.75 C-35.85202669 36.65732498 -34.15540789 35.29031285 -31.515625 33.265625 C-29.756626 31.88914542 -29.756626 31.88914542 -27.875 29.25 C-26 27 -26 27 -23.875 26.5 C-23.25625 26.335 -22.6375 26.17 -22 26 C-21.30959426 24.34302621 -20.6469365 22.6744239 -20 21 C-17.5625 18.1875 -17.5625 18.1875 -15 16 C-14.01 16 -13.02 16 -12 16 C-11.67 14.68 -11.34 13.36 -11 12 C-10.34 12 -9.68 12 -9 12 C-9 11.34 -9 10.68 -9 10 C-8.01 9.67 -7.02 9.34 -6 9 C-4.39792428 6.90805694 -4.39792428 6.90805694 -2.9375 4.4375 C-1.40234375 1.93359375 -1.40234375 1.93359375 0 0 Z " fill="#FE5E2F" transform="translate(159,60)"/>
<path d="M0 0 C0.495 0.495 0.495 0.495 1 1 C2.65106768 1.10933101 4.30637381 1.15586229 5.9609375 1.17578125 C6.99089844 1.19962891 8.02085937 1.22347656 9.08203125 1.24804688 C11.23809473 1.29024741 13.39439657 1.32190403 15.55078125 1.34179688 C23.0848094 1.54202136 29.10176496 3.00300648 36 6 C37.1130249 6.47095093 37.1130249 6.47095093 38.24853516 6.95141602 C40.22448954 7.80992931 42.17593608 8.70731574 44.125 9.625 C45.11113281 10.07359375 45.11113281 10.07359375 46.1171875 10.53125 C50.87687416 12.75374832 50.87687416 12.75374832 52 15 C53.0415625 15.2475 54.083125 15.495 55.15625 15.75 C59.7423239 16.95735415 62.30507188 19.62224268 65.5 23 C66.06388428 23.58088379 66.62776855 24.16176758 67.20874023 24.76025391 C71.69758109 29.47492804 75.61826637 34.42690297 79 40 C79.66515625 41.08152344 80.3303125 42.16304687 81.015625 43.27734375 C83.17493003 47.08806311 84.4639036 50.99737083 85.6875 55.1875 C85.89955078 55.88552734 86.11160156 56.58355469 86.33007812 57.30273438 C86.90154659 59.19741373 87.4517562 61.0984704 88 63 C88.18320801 63.6185083 88.36641602 64.2370166 88.55517578 64.87426758 C89.55317418 69.64351681 89.1847863 74.64790765 89.1875 79.5 C89.19974609 80.62148437 89.21199219 81.74296875 89.22460938 82.8984375 C89.23770597 90.45954075 88.48536597 97.5874768 87 105 C86.01 105.33 85.02 105.66 84 106 C83.9175 106.825 83.835 107.65 83.75 108.5 C82.82648739 112.80972551 81.09184855 116.15211805 79 120 C78.60425781 120.77085937 78.20851563 121.54171875 77.80078125 122.3359375 C75.34430545 127.00091677 72.84389084 130.33915158 69 134 C67.20815751 136.30957576 65.46609521 138.64820635 63.74609375 141.01171875 C61.9320195 143.07740956 60.45989721 143.86386103 58 145 C57.690625 145.639375 57.38125 146.27875 57.0625 146.9375 C56 149 56 149 53.875 150.25 C50.27077803 152.44387424 47.67636768 155.22314196 44.76953125 158.2578125 C43 160 43 160 41 161 C40.3503125 162.11375 40.3503125 162.11375 39.6875 163.25 C36.39977209 168.60777881 31.45888348 172.37438628 26.671875 176.3515625 C24.74844451 177.99880664 24.74844451 177.99880664 24 181 C22.36209288 182.04644066 20.68991979 183.0398183 19 184 C18.113125 184.721875 17.22625 185.44375 16.3125 186.1875 C14 188 14 188 12 188 C11.731875 188.804375 11.46375 189.60875 11.1875 190.4375 C10.795625 191.283125 10.40375 192.12875 10 193 C7 194 7 194 4.59375 192.8359375 C1.93324483 190.9527486 -0.2329851 188.96385692 -2.5 186.625 C-3.2321875 185.87476563 -3.964375 185.12453125 -4.71875 184.3515625 C-5.4715625 183.57554687 -6.224375 182.79953125 -7 182 C-10.9639474 178.01897071 -14.95514454 174.06543317 -18.94296265 170.1083374 C-22.25404426 166.82052408 -25.56137765 163.52895677 -28.86748314 160.2361412 C-31.36734106 157.74670332 -33.86903354 155.25916878 -36.375 152.77587891 C-39.28431296 149.89270523 -42.18526735 147.00124395 -45.0859375 144.109375 C-45.97469574 143.23093933 -46.86345398 142.35250366 -47.77914429 141.44744873 C-63.85045676 125.37901199 -74.06230369 106.61473564 -74.38500977 83.57177734 C-74.36120155 75.96824696 -74.09099212 68.52963415 -73 61 C-72.34 61 -71.68 61 -71 61 C-70.9071875 59.39125 -70.9071875 59.39125 -70.8125 57.75 C-69.6081896 48.41247009 -64.98968656 40.3991876 -59.453125 32.9609375 C-57.9600312 31.06440712 -57.9600312 31.06440712 -57 29 C-56.34 29 -55.68 29 -55 29 C-54.34 27.68 -53.68 26.36 -53 25 C-52.34 25 -51.68 25 -51 25 C-50.34 23.35 -49.68 21.7 -49 20 C-48.34 20 -47.68 20 -47 20 C-46.75636719 19.25105469 -46.51273438 18.50210938 -46.26171875 17.73046875 C-44.13280626 13.12331758 -40.212712 10.66320874 -36 8 C-32.25 6.75 -32.25 6.75 -29 6 C-28.26910156 5.52433594 -27.53820312 5.04867187 -26.78515625 4.55859375 C-23.3637592 2.64395501 -20.00245104 1.96926015 -16.1875 1.3125 C-15.51396484 1.18294922 -14.84042969 1.05339844 -14.14648438 0.91992188 C-9.37255599 0.05650325 -4.85114028 -0.19746116 0 0 Z M-12 63 C-13.485 64.2684375 -13.485 64.2684375 -15 65.5625 C-20.01700373 71.67697329 -18.29090019 82.21603306 -17.75 89.75 C-16.87210549 96.31665097 -14.17980156 100.31411274 -9 104.375 C-6.36075413 106.30288663 -4.21632517 107.38258044 -1 108 C-1 108.66 -1 109.32 -1 110 C6.38368555 112.10477473 13.20805371 111.65720185 20 108 C27.58152157 103.66770196 32.00753936 98.07964374 35 90 C35.391875 89.13375 35.78375 88.2675 36.1875 87.375 C38.37401541 80.98364725 35.64050616 75.81483307 33 70 C31.54337066 67.00457704 31.54337066 67.00457704 30 65 C29.34 65 28.68 65 28 65 C27.773125 64.4225 27.54625 63.845 27.3125 63.25 C23.81431373 57.25310925 17.33389438 54.99533022 11 53 C1.65198107 51.69127735 -5.31411957 57.25651034 -12 63 Z " fill="#FDB102" transform="translate(218,31)"/>
<path d="M0 0 C0.33 0.99 0.66 1.98 1 3 C1.99 3.33 2.98 3.66 4 4 C20.48174122 22.83627568 23.65134269 43.89792128 23.29052734 68.07836914 C22.96994988 71.30219312 22.11979277 73.96707676 21 77 C20.39671875 78.82724609 20.39671875 78.82724609 19.78125 80.69140625 C19.35418335 81.98177635 18.92709981 83.27214087 18.5 84.5625 C18.28730469 85.20896484 18.07460938 85.85542969 17.85546875 86.52148438 C16.6803009 90.06501197 15.42985627 93.55113373 14 97 C13.34 97 12.68 97 12 97 C11.6596875 98.051875 11.6596875 98.051875 11.3125 99.125 C9.71529523 102.62363901 7.49211871 105.08239761 5 108 C4.56300781 108.79277344 4.12601563 109.58554687 3.67578125 110.40234375 C1.69393575 113.47443527 -0.50782265 115.30410688 -3.375 117.5625 C-4.77878906 118.67818359 -4.77878906 118.67818359 -6.2109375 119.81640625 C-7.13132812 120.53699219 -8.05171875 121.25757813 -9 122 C-9.804375 122.67933594 -10.60875 123.35867188 -11.4375 124.05859375 C-28.04152889 136.63817051 -47.62308142 139.31080894 -67.74047852 139.25878906 C-69.51223392 139.26150351 -71.28398819 139.26506698 -73.05574036 139.26940918 C-77.83609103 139.27847549 -82.61635475 139.27501443 -87.39670682 139.26865101 C-92.40590722 139.26356822 -97.41510044 139.26828812 -102.42430115 139.27142334 C-110.8243035 139.27505332 -119.22427058 139.27028615 -127.62426758 139.26074219 C-137.34303488 139.24982758 -147.06171846 139.25340884 -156.78048378 139.264395 C-165.13141809 139.27345748 -173.48232714 139.27475922 -181.83326477 139.26951766 C-186.81868772 139.26639633 -191.80407122 139.26599375 -196.78949165 139.27259064 C-201.46728527 139.27834946 -206.14497018 139.27439425 -210.822752 139.26280212 C-212.54251805 139.26014904 -214.26229319 139.26093162 -215.98205566 139.26532745 C-218.32150075 139.2707581 -220.66059293 139.26397975 -223.00001526 139.25396729 C-224.31126657 139.25321323 -225.62251787 139.25245918 -226.97350407 139.25168228 C-230 139 -230 139 -232 137 C-230.22807281 137.01332367 -230.22807281 137.01332367 -228.42034912 137.0269165 C-217.29624317 137.10794897 -206.17219697 137.16793982 -195.04786301 137.20724869 C-189.32849593 137.22813709 -183.60936682 137.25647798 -177.89013672 137.30175781 C-172.37233384 137.3451703 -166.85476008 137.36912766 -161.33679962 137.37950897 C-159.23000735 137.38690857 -157.12322782 137.401358 -155.0165329 137.42292023 C-152.06901297 137.45189273 -149.12244374 137.45595853 -146.17480469 137.45410156 C-144.8638961 137.47567322 -144.8638961 137.47567322 -143.52650452 137.49768066 C-138.62282428 137.52110872 -138.62282428 137.52110872 -134.55157471 134.97161865 C-134.03955505 134.3209845 -133.5275354 133.67035034 -133 133 C-132.34 133 -131.68 133 -131 133 C-130.731875 132.360625 -130.46375 131.72125 -130.1875 131.0625 C-129 129 -129 129 -126 128 C-125.505 126.515 -125.505 126.515 -125 125 C-123.01739574 123.31267723 -121.0167658 121.64633943 -119 120 C-118.01 118.515 -118.01 118.515 -117 117 C-116.34 117 -115.68 117 -115 117 C-114.79375 116.443125 -114.5875 115.88625 -114.375 115.3125 C-113.03153247 113.05303189 -111.94842298 112.0001344 -109.9375 110.375 C-106.99175287 108.32880603 -106.99175287 108.32880603 -106 106 C-105.34 106 -104.68 106 -104 106 C-104 105.34 -104 104.68 -104 104 C-103.34 104 -102.68 104 -102 104 C-101.67 103.01 -101.34 102.02 -101 101 C-100.34 101 -99.68 101 -99 101 C-98.731875 100.360625 -98.46375 99.72125 -98.1875 99.0625 C-97 97 -97 97 -94 96 C-93.31513275 94.67592331 -92.65129797 93.34090759 -92 92 C-90 89.75 -90 89.75 -88 88 C-87.34 88 -86.68 88 -86 88 C-85.67 87.01 -85.34 86.02 -85 85 C-84.34 85 -83.68 85 -83 85 C-83 84.34 -83 83.68 -83 83 C-82.34 83 -81.68 83 -81 83 C-80.7525 82.38125 -80.505 81.7625 -80.25 81.125 C-78.76259631 78.59641373 -77.56321991 78.28160996 -75 77 C-74.566875 76.1028125 -74.566875 76.1028125 -74.125 75.1875 C-72.77934425 72.57094715 -70.94280019 71.2308727 -68.65625 69.4375 C-66.22611659 67.3283276 -64.29200393 64.87083291 -62.296875 62.35546875 C-61.86890625 61.90816406 -61.4409375 61.46085937 -61 61 C-60.34 61 -59.68 61 -59 61 C-59.99 59.02 -59.99 59.02 -61 57 C-60.21625 56.9175 -59.4325 56.835 -58.625 56.75 C-57.325625 56.37875 -57.325625 56.37875 -56 56 C-55.70738281 55.401875 -55.41476563 54.80375 -55.11328125 54.1875 C-53.71011052 51.4303926 -52.0060478 50.12780028 -49.5625 48.25 C-48.78003906 47.63640625 -47.99757812 47.0228125 -47.19140625 46.390625 C-45 45 -45 45 -42 45 C-41.91234375 44.41089844 -41.8246875 43.82179687 -41.734375 43.21484375 C-40.80267808 40.40488548 -39.53211708 39.4199374 -37.25 37.5625 C-36.16912109 36.65564453 -36.16912109 36.65564453 -35.06640625 35.73046875 C-34.38449219 35.15941406 -33.70257813 34.58835938 -33 34 C-30.44871315 31.61879894 -28.37392692 29.67662966 -26.6875 26.625 C-24.56162195 23.31807859 -21.92331447 21.16115172 -18.9296875 18.64453125 C-16.8742968 16.94440138 -16.8742968 16.94440138 -14.6875 14.625 C-13 13 -13 13 -10 12 C-9.690625 11.360625 -9.38125 10.72125 -9.0625 10.0625 C-8 8 -8 8 -6.125 7.125 C-3.02113536 5.48177754 -1.79306226 2.94574515 0 0 Z " fill="#FD8B39" transform="translate(284,167)"/>
<path d="M0 0 C2.89146008 -0.03748188 5.78296858 -0.06392651 8.67455959 -0.08901662 C10.6623756 -0.1107267 12.64999921 -0.1482537 14.63757038 -0.18626219 C16.41932415 -0.19986391 16.41932415 -0.19986391 18.23707294 -0.21374041 C19.27054356 -0.22872985 20.30401417 -0.24371929 21.36880207 -0.25916296 C24.6486596 0.13943114 26.47129539 1.25026299 29.18604755 3.08321089 C30.85760501 3.7301802 32.54660006 4.33352913 34.24854755 4.89571089 C44.77510349 8.64005629 54.72284759 13.68624084 63.18604755 21.08321089 C63.18604755 21.74321089 63.18604755 22.40321089 63.18604755 23.08321089 C64.17604755 23.41321089 65.16604755 23.74321089 66.18604755 24.08321089 C66.18604755 24.74321089 66.18604755 25.40321089 66.18604755 26.08321089 C66.84604755 26.08321089 67.50604755 26.08321089 68.18604755 26.08321089 C69.89531568 28.09026091 71.48793778 30.09850099 73.06104755 32.20821089 C73.49546162 32.77797651 73.92987568 33.34774214 74.3774538 33.93477339 C81.5530796 43.41608075 85.24153935 51.18240752 86.18604755 63.08321089 C86.84604755 63.08321089 87.50604755 63.08321089 88.18604755 63.08321089 C89.16756229 70.4799059 89.36930576 77.75113995 89.37354755 85.20821089 C89.38579365 86.3490312 89.39803974 87.48985151 89.41065693 88.66524214 C89.42094979 94.57334373 89.16455106 99.5132934 87.18604755 105.08321089 C86.70471531 106.89513699 86.22539835 108.70760023 85.74854755 110.52071089 C84.48958572 115.17116173 82.96015397 119.60570422 81.18604755 124.08321089 C80.52604755 124.08321089 79.86604755 124.08321089 79.18604755 124.08321089 C78.85604755 126.06321089 78.52604755 128.04321089 78.18604755 130.08321089 C77.52604755 130.08321089 76.86604755 130.08321089 76.18604755 130.08321089 C75.84573505 131.16602339 75.84573505 131.16602339 75.49854755 132.27071089 C73.93773743 135.61530402 71.88291885 137.59925048 69.18604755 140.08321089 C70.36056225 142.85933652 71.85572769 144.94823779 73.81104755 147.20821089 C76.18604755 150.08321089 76.18604755 150.08321089 76.18604755 152.08321089 C76.84604755 152.08321089 77.50604755 152.08321089 78.18604755 152.08321089 C82.79127804 159.15552913 86.18604755 167.58017458 86.18604755 176.08321089 C86.84604755 176.08321089 87.50604755 176.08321089 88.18604755 176.08321089 C89.35089604 183.4605846 89.33427892 190.7509411 89.31104755 198.20821089 C89.31491474 199.45731245 89.31878193 200.70641401 89.3227663 201.99336714 C89.32083271 203.80514448 89.32083271 203.80514448 89.31886005 205.65352339 C89.31773212 206.74423139 89.31660419 207.8349394 89.31544209 208.95869917 C89.18630945 212.07688688 88.76584557 215.01955123 88.18604755 218.08321089 C87.52604755 218.08321089 86.86604755 218.08321089 86.18604755 218.08321089 C86.14866474 218.72387495 86.11128193 219.36453901 86.0727663 220.02461714 C85.64051059 225.71174623 84.69137223 229.96817301 82.18604755 235.08321089 C81.85604755 236.07321089 81.52604755 237.06321089 81.18604755 238.08321089 C80.52604755 238.08321089 79.86604755 238.08321089 79.18604755 238.08321089 C79.07196552 238.90498823 79.07196552 238.90498823 78.9555788 239.74336714 C77.90020503 242.95234627 76.05183629 244.95025888 73.87354755 247.52071089 C73.09366474 248.44754682 72.31378193 249.37438276 71.5102663 250.32930464 C70.74327412 251.2380937 69.97628193 252.14688276 69.18604755 253.08321089 C68.55698505 253.91981245 67.92792255 254.75641401 67.27979755 255.61836714 C64.80899453 258.52709234 62.03159889 260.80000708 58.99854755 263.08321089 C58.41975849 263.5210893 57.84096943 263.95896772 57.2446413 264.41011518 C39.53601883 277.60549846 19.98167097 281.51762923 -1.64451885 281.57906049 C-3.39064899 281.59466389 -5.1367686 281.61148403 -6.8828764 281.6294145 C-11.58308961 281.67373649 -16.28322896 281.69971458 -20.98359632 281.72104806 C-24.92245902 281.7405368 -28.86123834 281.76893209 -32.80004632 281.79719067 C-42.09597621 281.86364323 -51.39190405 281.91489824 -60.68797588 281.9565019 C-70.2505946 281.99956264 -79.81278814 282.06823565 -89.37515223 282.1494931 C-97.61583042 282.21861973 -105.85650854 282.27187462 -114.09737623 282.31254292 C-119.00605172 282.33691753 -123.91450613 282.36712498 -128.82303524 282.41263098 C-133.43770362 282.45471659 -138.05205882 282.47684624 -142.66690922 282.48412031 C-144.35188028 282.49001068 -146.03684474 282.50270864 -147.72170353 282.52303213 C-159.85464999 282.66346814 -172.58071499 281.99884312 -181.81395245 273.08321089 C-189.60571547 264.73837909 -192.28029062 256.62102702 -192.2016325 245.32306379 C-192.20971081 243.91117028 -192.20971081 243.91117028 -192.21795231 242.47075367 C-192.23218006 239.33875148 -192.22514099 236.20717503 -192.21800518 233.07515424 C-192.22371135 230.8208224 -192.23067657 228.56649344 -192.23880291 226.31216902 C-192.25671946 220.20487978 -192.25556902 214.09773433 -192.24986053 207.99042672 C-192.24676732 202.88833979 -192.25286242 197.78628043 -192.25889927 192.68419743 C-192.27373911 179.96093611 -192.27013506 167.23777638 -192.25803597 154.51452131 C-192.24809919 143.47560637 -192.26105506 132.43685894 -192.28497016 121.39796983 C-192.30937348 110.04777965 -192.31856681 98.69768952 -192.31231743 87.34746552 C-192.30894678 80.98126647 -192.31137067 74.61520591 -192.32856846 68.24902624 C-192.34403055 62.26449449 -192.34008986 56.28028297 -192.32126331 50.29576391 C-192.31757583 48.10120162 -192.32069051 45.90661564 -192.3311491 43.71207517 C-192.34434895 40.71313916 -192.33281992 37.71526491 -192.31515789 34.71637434 C-192.3247629 33.85089804 -192.3343679 32.98542174 -192.34426397 32.09371889 C-192.27296642 26.19801235 -190.85590763 22.11235908 -187.81395245 17.08321089 C-187.35633526 16.3059062 -186.89871807 15.52860151 -186.4272337 14.72774214 C-182.69624922 9.47299222 -178.64558545 6.72377431 -172.81395245 4.08321089 C-171.91587872 3.57432829 -171.01780499 3.06544569 -170.0925169 2.5411424 C-164.05922811 -0.01056702 -157.34755874 0.64310589 -150.91551495 0.65083784 C-149.39828987 0.6418108 -147.88107208 0.63148127 -146.36386395 0.61995405 C-142.24867255 0.59239336 -138.13361949 0.58309506 -134.01834774 0.57709998 C-129.67794484 0.56766354 -125.33764236 0.54143248 -120.99730206 0.51709455 C-112.74714981 0.47339213 -104.49701696 0.44489443 -96.24678421 0.42177117 C-86.98087311 0.39503659 -77.71507202 0.35092414 -68.44923687 0.30548245 C-57.09573843 0.25028328 -45.74221912 0.19956017 -34.38865948 0.15872663 C-33.58601036 0.15582154 -32.78336124 0.15291645 -31.95638943 0.14992332 C-28.04098995 0.13637315 -24.1256123 0.12558768 -20.21019268 0.1201877 C-18.70327524 0.11791976 -17.19635792 0.11557413 -15.68944073 0.11314863 C-14.58718843 0.11139392 -14.58718843 0.11139392 -13.46266842 0.10960376 C-8.97459707 0.09886579 -4.48767428 0.06022533 0 0 Z M-26.55272198 2.09160322 C-43.82523256 2.09883494 -61.097496 2.14436259 -78.36986065 2.21530145 C-87.00245942 2.25017248 -95.63489237 2.27535052 -104.26756573 2.27876753 C-111.90182269 2.28181207 -119.53579982 2.302314 -127.16994858 2.34373546 C-131.18063868 2.36491645 -135.19093189 2.37773922 -139.20167828 2.36936468 C-142.95178542 2.36179999 -146.70107759 2.37774297 -150.4510355 2.41127104 C-152.46456002 2.42333209 -154.47818549 2.41096878 -156.49170208 2.39764875 C-165.8102014 2.51457724 -172.55117147 4.38332808 -179.6537962 10.54805464 C-180.34602276 11.3640312 -181.03824932 12.18000776 -181.75145245 13.02071089 C-182.46172588 13.83410932 -183.17199932 14.64750776 -183.9037962 15.48555464 C-190.69776173 24.72479202 -189.96021738 34.49587632 -189.92698956 45.49849409 C-189.92640183 46.84611399 -189.92621808 48.19373411 -189.926404 49.54135412 C-189.92547142 53.20026015 -189.91794228 56.85912537 -189.9089396 60.51801938 C-189.90199772 63.62693987 -189.89863946 66.7358607 -189.89512461 69.84478664 C-189.85527535 103.59153663 -189.66009803 137.33765372 -189.42511308 171.08352858 C-189.38016994 177.59639492 -189.3405951 184.10928707 -189.30196053 190.62219346 C-189.26364098 197.04328004 -189.22174775 203.46433691 -189.1770739 209.88538241 C-189.15087402 213.65902573 -189.12601853 217.43266443 -189.10487843 221.20633978 C-189.08153303 225.34918162 -189.05073925 229.49193642 -189.01927471 233.63472456 C-189.01351925 234.84106046 -189.00776379 236.04739637 -189.00183392 237.29028791 C-188.87741675 251.7037352 -188.60806702 261.54284375 -178.3022337 272.22383589 C-169.33933524 278.92138638 -160.2023086 278.65102142 -149.47508526 278.58491987 C-147.72146961 278.58870756 -145.96785696 278.5942113 -144.21425152 278.60129255 C-139.47013306 278.61520989 -134.72637883 278.6041017 -129.98228073 278.58758134 C-125.0022389 278.57368066 -120.02221715 278.58019695 -115.0421629 278.58371443 C-106.6763199 278.58641359 -98.31062061 278.57296963 -89.94481182 278.54976362 C-80.29897024 278.52319059 -70.65336937 278.52139686 -61.00750375 278.53315198 C-51.7015285 278.54396815 -42.39563957 278.53771041 -33.08967113 278.5235967 C-29.14263376 278.51786661 -25.19566017 278.5178961 -21.24862194 278.5226621 C-16.58963535 278.52746861 -11.93090891 278.51717958 -7.2719717 278.49570745 C-5.57134789 278.4901878 -3.87069883 278.48962937 -2.17007351 278.49466032 C10.65766188 278.52782179 22.31470927 276.93946347 34.37354755 272.27071089 C35.04861347 272.01064253 35.72367939 271.75057417 36.41920185 271.48262495 C45.99883907 267.68149093 53.2939318 262.41960644 60.74073505 255.35274214 C63.18604755 253.08321089 63.18604755 253.08321089 65.4165163 251.42305464 C67.76195845 249.6471459 68.73413741 247.63857274 70.18604755 245.08321089 C71.50109171 243.24927883 72.84185016 241.43788057 74.1977663 239.63399214 C75.36518928 238.10859354 75.36518928 238.10859354 75.18604755 236.08321089 C75.84604755 236.08321089 76.50604755 236.08321089 77.18604755 236.08321089 C80.08566215 229.52823108 82.14609701 222.93585497 83.87843037 215.99898237 C85.09299483 211.17626361 85.09299483 211.17626361 86.18604755 210.08321089 C88.05033715 185.28944499 84.08641912 162.62652027 67.51368427 143.29805464 C66.24005953 141.8581865 66.24005953 141.8581865 64.18604755 142.08321089 C65.20486177 138.72112397 66.6143431 136.46052576 68.93604755 133.89571089 C74.72941916 127.37993842 81.18604755 118.09876248 81.18604755 109.08321089 C82.67104755 108.58821089 82.67104755 108.58821089 84.18604755 108.08321089 C88.86029794 84.12835002 87.6659455 61.30690538 74.44386005 40.31758589 C66.62831118 28.9672037 57.18453979 19.86894354 45.18604755 13.08321089 C44.48479755 12.6359062 43.78354755 12.18860151 43.06104755 11.72774214 C36.01113656 7.38830829 28.09014355 5.32918352 20.18604755 3.08321089 C19.28897335 2.80735796 19.28897335 2.80735796 18.37377644 2.52593225 C15.42250284 1.9286956 12.61935636 1.97134733 9.60816669 1.98404402 C8.63094937 1.98598038 8.63094937 1.98598038 7.63399029 1.98795587 C5.47551868 1.99330239 3.31714592 2.00570061 1.1587038 2.01802534 C-0.37319059 2.02307565 -1.90508673 2.02761758 -3.43698406 2.03167909 C-6.636282 2.04071194 -9.83555617 2.05229097 -13.03483868 2.06569761 C-17.54080882 2.08362038 -22.0467195 2.0899743 -26.55272198 2.09160322 Z " fill="#FDF6EC" transform="translate(220.8139524459839,27.91678911447525)"/>
<path d="M0 0 C0.33 0 0.66 0 1 0 C1.00634791 1.10572719 1.00634791 1.10572719 1.01282406 2.2337923 C1.11631665 20.20490386 1.22498144 38.17597741 1.33933926 56.1470232 C1.3945192 64.83782981 1.44797537 73.52864053 1.49731445 82.21948242 C1.5403437 89.79809511 1.58666743 97.37667943 1.63687855 104.95524806 C1.66332942 108.96467621 1.68817717 112.97409929 1.70907402 116.98356056 C1.72883435 120.76494296 1.7530322 124.54627212 1.78049088 128.3276062 C1.7941465 130.36154866 1.80322515 132.39552028 1.81211853 134.42948914 C1.83161316 153.64233241 1.83161316 153.64233241 11.73046875 169.359375 C20.67838051 175.82774495 29.73561031 175.56704665 40.33886719 175.50170898 C42.09248284 175.50549667 43.84609549 175.51100041 45.59970093 175.51808167 C50.34381939 175.53199901 55.08757362 175.52089082 59.83167171 175.50437045 C64.81171355 175.49046978 69.79173529 175.49698607 74.77178955 175.50050354 C83.13763255 175.50320271 91.50333184 175.48975874 99.86914062 175.46655273 C109.51498221 175.4399797 119.16058308 175.43818597 128.8064487 175.4499411 C138.11242395 175.46075726 147.41831288 175.45449953 156.72428131 175.44038582 C160.67131869 175.43465572 164.61829227 175.43468521 168.56533051 175.43945122 C173.22431709 175.44425773 177.88304353 175.43396869 182.54198074 175.41249657 C184.24260455 175.40697691 185.94325361 175.40641848 187.64387894 175.41144943 C200.47161433 175.4446109 212.12866172 173.85625258 224.1875 169.1875 C224.86256592 168.92743164 225.53763184 168.66736328 226.2331543 168.39941406 C235.8614206 164.57898436 243.17084577 159.2766069 250.65234375 152.171875 C253 150 253 150 256 148 C257.04349839 146.36021682 258.03182008 144.68535024 259 143 C260.00678475 141.38697927 261.02871135 139.7833485 262.0625 138.1875 C262.82240234 137.00220703 262.82240234 137.00220703 263.59765625 135.79296875 C264.29181641 134.90544922 264.29181641 134.90544922 265 134 C265.66 134 266.32 134 267 134 C267.13535156 133.278125 267.27070313 132.55625 267.41015625 131.8125 C268.69604653 125.68110265 270.67687728 119.80780681 273 114 C273.36871088 112.34080104 273.71281674 110.6752357 274 109 C274.33 109 274.66 109 275 109 C275.82521093 115.79126289 276.50733805 121.48092108 274 128 C273.73445313 128.72574219 273.46890625 129.45148438 273.1953125 130.19921875 C272.4838882 132.14039077 271.74443165 134.07124526 271 136 C270.34 136 269.68 136 269 136 C268.88591797 136.82177734 268.88591797 136.82177734 268.76953125 137.66015625 C267.71415748 140.86913539 265.86578873 142.86704799 263.6875 145.4375 C262.90761719 146.36433594 262.12773437 147.29117188 261.32421875 148.24609375 C260.55722656 149.15488281 259.79023438 150.06367188 259 151 C258.3709375 151.83660156 257.741875 152.67320312 257.09375 153.53515625 C254.62294698 156.44388145 251.84555134 158.7167962 248.8125 161 C248.23371094 161.43787842 247.65492188 161.87575684 247.05859375 162.3269043 C229.34997128 175.52228757 209.79562342 179.43441835 188.16943359 179.49584961 C186.42330346 179.511453 184.67718384 179.52827314 182.93107605 179.54620361 C178.23086284 179.5905256 173.53072348 179.61650369 168.83035612 179.63783717 C164.89149343 179.65732592 160.95271411 179.68572121 157.01390612 179.71397978 C147.71797624 179.78043235 138.42204839 179.83168735 129.12597656 179.87329102 C119.56335785 179.91635176 110.0011643 179.98502476 100.43880022 180.06628221 C92.19812202 180.13540884 83.9574439 180.18866373 75.71657622 180.22933203 C70.80790073 180.25370664 65.89944631 180.2839141 60.99091721 180.32942009 C56.37624882 180.37150571 51.76189363 180.39363535 47.14704323 180.40090942 C45.46207216 180.40679979 43.77710771 180.41949775 42.09224892 180.43982124 C29.9596815 180.58025286 17.23264831 179.91584175 8 171 C0.69057434 163.18131108 -1.32085208 155.89557907 -1.24291992 145.41503906 C-1.24479561 144.59231947 -1.2466713 143.76959988 -1.24860382 142.92194939 C-1.25224398 140.2030787 -1.24152782 137.48447253 -1.23046875 134.765625 C-1.22961091 132.83096332 -1.22953131 130.89630116 -1.23017883 128.9616394 C-1.22902936 123.79144678 -1.21471646 118.62137018 -1.19723511 113.45121002 C-1.18751189 110.25390935 -1.18167185 107.05662609 -1.17724609 103.85931396 C-1.12915186 69.23247901 -0.79878685 34.6181635 0 0 Z " fill="#FCEEE4" transform="translate(31,130)"/>
<path d="M0 0 C2.875 2.4375 2.875 2.4375 5 5 C5.825 5.70125 6.65 6.4025 7.5 7.125 C13.86931405 14.44971115 15.82477152 22.10586853 15.40625 31.7109375 C14.23133684 41.22321521 8.85335275 47.55251417 2 54 C-5.68665444 59.80701528 -14.72103559 59.75179179 -24 59 C-33.99860449 56.24717451 -39.73439341 49.60800675 -45 41 C-48.83685119 33.60580334 -48.23124235 22.7755468 -46.1953125 14.87890625 C-42.6062031 6.94573684 -36.03420851 1.10797208 -28.1875 -2.5 C-18.5614546 -5.83782379 -8.98180753 -4.61835846 0 0 Z M-36 10 C-37.485 11.2684375 -37.485 11.2684375 -39 12.5625 C-44.01700373 18.67697329 -42.29090019 29.21603306 -41.75 36.75 C-40.87210549 43.31665097 -38.17980156 47.31411274 -33 51.375 C-30.36075413 53.30288663 -28.21632517 54.38258044 -25 55 C-25 55.66 -25 56.32 -25 57 C-17.61631445 59.10477473 -10.79194629 58.65720185 -4 55 C3.58152157 50.66770196 8.00753936 45.07964374 11 37 C11.391875 36.13375 11.78375 35.2675 12.1875 34.375 C14.37401541 27.98364725 11.64050616 22.81483307 9 17 C7.54337066 14.00457704 7.54337066 14.00457704 6 12 C5.34 12 4.68 12 4 12 C3.773125 11.4225 3.54625 10.845 3.3125 10.25 C-0.18568627 4.25310925 -6.66610562 1.99533022 -13 0 C-22.34801893 -1.30872265 -29.31411957 4.25651034 -36 10 Z " fill="#FDF7E2" transform="translate(242,84)"/>
<path d="M0 0 C-0.6290625 0.25652344 -1.258125 0.51304688 -1.90625 0.77734375 C-10.12078558 4.45161644 -15.1526396 9.49933357 -19.9375 17.0625 C-22.5074135 24.16755498 -22.16399961 31.88742986 -22.20532227 39.35009766 C-22.21521903 40.47000029 -22.2251158 41.58990292 -22.23531246 42.74374199 C-22.26695239 46.46716086 -22.2917801 50.19059112 -22.31640625 53.9140625 C-22.3371184 56.56360179 -22.35815496 59.21313693 -22.3795166 61.8626709 C-22.42999524 68.24346346 -22.47492401 74.62428371 -22.51765215 81.00513244 C-22.55215527 86.14762131 -22.58880085 91.29009109 -22.62667847 96.43255615 C-23.00708943 148.2885226 -23.12953906 200.14266347 -23 252 C-23.66 251.67 -24.32 251.34 -25 251 C-25.0912867 221.83556695 -25.16205742 192.67114787 -25.20426132 163.50660047 C-25.20926403 160.06201727 -25.21444133 156.61743434 -25.21972656 153.17285156 C-25.2207758 152.48710865 -25.22182505 151.80136573 -25.22290608 151.09484273 C-25.24030256 139.99717724 -25.27183604 128.89959479 -25.30861118 117.80197853 C-25.34604176 106.4114162 -25.36794098 95.02091536 -25.37635398 83.63028765 C-25.38156952 77.23374315 -25.39383124 70.83738689 -25.42292023 64.44090271 C-25.45008104 58.41959621 -25.45844349 52.39855539 -25.45243073 46.37719345 C-25.45353065 44.16811046 -25.46148032 41.95901854 -25.4768219 39.74998856 C-25.49675976 36.73090895 -25.49192485 33.71282892 -25.48101807 30.69372559 C-25.49266943 29.82211021 -25.5043208 28.95049483 -25.51632524 28.05246687 C-25.45864861 22.13496719 -24.05802026 18.04554297 -21 13 C-20.54238281 12.22269531 -20.08476563 11.44539063 -19.61328125 10.64453125 C-15.88591176 5.39487272 -11.79671165 2.70126763 -6 0 C-3.50907189 -1.24546405 -2.58919267 -0.7767578 0 0 Z " fill="#FEFEFD" transform="translate(54,32)"/>
<path d="M0 0 C5.75785025 -0.59054874 10.08904387 1.18074741 15 4 C17.8125 6.5625 17.8125 6.5625 20 9 C20.65871094 9.45632812 21.31742188 9.91265625 21.99609375 10.3828125 C26.53793543 14.04815842 27.75827151 19.86312018 28.390625 25.453125 C28.75999938 37.64247964 25.40613162 43.97241231 17.31640625 52.8359375 C14.96517021 55.03253912 12.91826951 56.64029915 10 58 C7.6875 57.6875 7.6875 57.6875 6 57 C6.59167969 56.63648438 7.18335938 56.27296875 7.79296875 55.8984375 C15.49310954 50.99948985 19.6718316 46.71663152 23 38 C23.391875 37.13375 23.78375 36.2675 24.1875 35.375 C25.75439142 30.79485585 24.99347402 27.36431888 23.125 23 C22.77695313 22.175 22.42890625 21.35 22.0703125 20.5 C21.71710938 19.675 21.36390625 18.85 21 18 C20.32934801 16.33493299 19.66152583 14.66871381 19 13 C18.34 13 17.68 13 17 13 C16.29875 12.0925 15.5975 11.185 14.875 10.25 C11.07280533 5.47751232 5.85140219 3.31623969 0 2 C0 1.34 0 0.68 0 0 Z " fill="#FDFAED" transform="translate(229,83)"/>
<path d="M0 0 C0 0.33 0 0.66 0 1 C-1.03125 1.12375 -2.0625 1.2475 -3.125 1.375 C-6.65438383 1.94425546 -9.62884624 2.85380772 -13 4 C-14.53950659 4.32297341 -16.08137371 4.63482818 -17.625 4.9375 C-21.16435212 5.68791355 -23.19244015 6.67650219 -26 9 C-27.010625 9.33 -28.02125 9.66 -29.0625 10 C-31.99688452 10.75773454 -31.99688452 10.75773454 -33.625 12.625 C-34.305625 13.305625 -34.305625 13.305625 -35 14 C-36.32 14 -37.64 14 -39 14 C-39.25136719 14.59039062 -39.50273437 15.18078125 -39.76171875 15.7890625 C-41.15486406 18.27650807 -42.60964761 19.58070723 -44.8125 21.375 C-47.44103394 23.58373179 -49.74303478 25.74549615 -51.875 28.4375 C-52.57625 29.283125 -53.2775 30.12875 -54 31 C-54.66 31 -55.32 31 -56 31 C-56.2475 31.86625 -56.495 32.7325 -56.75 33.625 C-58.08304917 37.22423275 -59.78592432 39.8742461 -62 43 C-62.75354515 44.12262848 -63.50366845 45.24756298 -64.25 46.375 C-64.8275 47.24125 -65.405 48.1075 -66 49 C-66.703125 47.33984375 -66.703125 47.33984375 -67 45 C-65.671875 42.37890625 -65.671875 42.37890625 -63.75 39.5625 C-63.12609375 38.63566406 -62.5021875 37.70882812 -61.859375 36.75390625 C-61.24578125 35.84511719 -60.6321875 34.93632813 -60 34 C-59.46890625 33.06027344 -58.9378125 32.12054688 -58.390625 31.15234375 C-57.70226562 30.08693359 -57.70226562 30.08693359 -57 29 C-56.34 29 -55.68 29 -55 29 C-54.34 27.68 -53.68 26.36 -53 25 C-52.34 25 -51.68 25 -51 25 C-50.34 23.35 -49.68 21.7 -49 20 C-48.34 20 -47.68 20 -47 20 C-46.75636719 19.25105469 -46.51273438 18.50210938 -46.26171875 17.73046875 C-44.13280626 13.12331758 -40.212712 10.66320874 -36 8 C-32.25 6.75 -32.25 6.75 -29 6 C-28.26910156 5.52433594 -27.53820312 5.04867187 -26.78515625 4.55859375 C-23.3637592 2.64395501 -20.00245104 1.96926015 -16.1875 1.3125 C-15.51396484 1.18294922 -14.84042969 1.05339844 -14.14648438 0.91992188 C-9.37173272 0.05635435 -4.84997186 -0.11405309 0 0 Z " fill="#FCA416" transform="translate(218,31)"/>
<path d="M0 0 C-0.6290625 0.25652344 -1.258125 0.51304688 -1.90625 0.77734375 C-10.12078558 4.45161644 -15.1526396 9.49933357 -19.9375 17.0625 C-22.09850348 23.03703904 -22.12984354 29.4040893 -22.20532227 35.70117188 C-22.21522186 36.42410431 -22.22512146 37.14703674 -22.23532104 37.89187622 C-22.26658347 40.25080231 -22.29155192 42.60974846 -22.31640625 44.96875 C-22.33700635 46.61641932 -22.35800356 48.26408372 -22.37937927 49.91174316 C-22.43428468 54.22542305 -22.48383153 58.5391481 -22.53222656 62.85290527 C-22.58267345 67.26395638 -22.63823786 71.67494277 -22.69335938 76.0859375 C-22.80055462 84.72390344 -22.90208356 93.36192391 -23 102 C-23.33 102 -23.66 102 -24 102 C-24.22382144 91.57745872 -24.42523809 81.15474487 -24.59840012 70.73123169 C-24.67951128 65.89067948 -24.76820964 61.05051895 -24.87451172 56.21044922 C-24.97689828 51.53574699 -25.05900913 46.86108034 -25.12732697 42.1857605 C-25.15684838 40.40594147 -25.19356031 38.6262261 -25.2377243 36.84671021 C-25.29854336 34.34562302 -25.33331277 31.84538167 -25.36230469 29.34375 C-25.38603653 28.61510239 -25.40976837 27.88645477 -25.43421936 27.13572693 C-25.45755579 21.59241878 -23.8002165 17.73406258 -21 13 C-20.54238281 12.22269531 -20.08476563 11.44539063 -19.61328125 10.64453125 C-15.88591176 5.39487272 -11.79671165 2.70126763 -6 0 C-3.50907189 -1.24546405 -2.58919267 -0.7767578 0 0 Z " fill="#FDF7F2" transform="translate(54,32)"/>
<path d="M0 0 C6.62405952 5.43919254 12.5976379 11.48465589 18.625 17.5625 C19.65861797 18.60114656 20.69247059 19.63955967 21.7265625 20.67773438 C23.62987582 22.58914277 25.53154757 24.5021298 27.43212891 26.41625977 C30.97279093 29.97880266 34.51385805 33.53969244 38.11328125 37.04296875 C39.17973223 38.09110033 40.24613804 39.13927786 41.3125 40.1875 C41.86228516 40.72052734 42.41207031 41.25355469 42.97851562 41.80273438 C44.35715678 43.16424956 45.68339727 44.57840502 47 46 C47 46.66 47 47.32 47 48 C45.37373596 49.38232443 43.7074998 50.71937515 42 52 C41.01 51.505 41.01 51.505 40 51 C40.33 50.01 40.66 49.02 41 48 C41.66 48 42.32 48 43 48 C42.06862408 46.70391053 41.1296434 45.41328368 40.1875 44.125 C39.66542969 43.40570313 39.14335937 42.68640625 38.60546875 41.9453125 C36.96727223 39.76971345 36.96727223 39.76971345 34 38 C34 37.34 34 36.68 34 36 C33.34 36 32.68 36 32 36 C32 35.01 32 34.02 32 33 C31.443125 32.938125 30.88625 32.87625 30.3125 32.8125 C25.88528278 31.25699125 23.21125831 27.28819029 20.3125 23.75 C18.2957678 20.98257806 18.2957678 20.98257806 16 20 C16 19.01 16 18.02 16 17 C15.01 16.67 14.02 16.34 13 16 C13 15.34 13 14.68 13 14 C11.88625 13.690625 11.88625 13.690625 10.75 13.375 C7.20398577 11.60199289 6.12419602 9.2890777 4 6 C1.89960669 4.61131484 1.89960669 4.61131484 0 4 C0 2.68 0 1.36 0 0 Z " fill="#F36319" transform="translate(178,180)"/>
<path d="M0 0 C0.33 0.66 0.66 1.32 1 2 C-1.31 4.64 -3.62 7.28 -6 10 C-6 6.41087588 -5.33563446 5.89142971 -3 3.3125 C-2.443125 2.68988281 -1.88625 2.06726563 -1.3125 1.42578125 C-0.879375 0.95527344 -0.44625 0.48476562 0 0 Z M-9 10 C-8.34 10.33 -7.68 10.66 -7 11 C-12 16 -17 21 -22 26 C-22.33 25.34 -22.66 24.68 -23 24 C-14.12418301 13.416122 -14.12418301 13.416122 -9 10 Z M-25 26 C-24.34 26.33 -23.68 26.66 -23 27 C-32.9 36.9 -42.8 46.8 -53 57 C-53.66 56.67 -54.32 56.34 -55 56 C-53.38405168 53.95880212 -51.7143618 51.95927063 -50 50 C-49.34 50 -48.68 50 -48 50 C-48 49.34 -48 48.68 -48 48 C-47.34 48 -46.68 48 -46 48 C-45.938125 47.443125 -45.87625 46.88625 -45.8125 46.3125 C-43.83052011 40.67148032 -37.72692222 37.19988396 -33.15625 33.7109375 C-30.5442287 31.63835538 -28.28297424 29.42566012 -26 27 C-25.67 26.67 -25.34 26.34 -25 26 Z " fill="#F96C2F" transform="translate(144,76)"/>
<path d="M0 0 C4.58571293 -0.10041143 9.17075798 -0.17217767 13.75732422 -0.21972656 C15.3108233 -0.23958982 16.86425022 -0.26669021 18.41748047 -0.30175781 C38.04587727 -0.73315115 54.71754473 4.87792917 71 16 C69.68 16.33 68.36 16.66 67 17 C66.505 15.515 66.505 15.515 66 14 C63.95109162 13.28288207 61.89554405 12.58110632 59.81640625 11.95703125 C55.34974008 10.43923207 51.1657808 8.34485529 46.91796875 6.3046875 C42.73466357 4.43424047 39.21132128 3.86306103 34.640625 3.68359375 C33.60679687 3.64169922 32.57296875 3.59980469 31.5078125 3.55664062 C29.89519531 3.49766602 29.89519531 3.49766602 28.25 3.4375 C27.19039062 3.39431641 26.13078125 3.35113281 25.0390625 3.30664062 C19.35469878 3.08448497 13.6885261 2.9519086 8 3 C8 2.67 8 2.34 8 2 C5.36 1.67 2.72 1.34 0 1 C0 0.67 0 0.34 0 0 Z " fill="#F2BA42" transform="translate(203,30)"/>
<path d="M0 0 C3.69827948 2.89430568 5.95840635 4.78070646 8 9 C9.66270287 10.33827304 11.32916181 11.67189785 13 13 C13.33 13.99 13.66 14.98 14 16 C16.05894078 17.7870037 16.05894078 17.7870037 18.5 19.5 C22.88888889 22.66666667 22.88888889 22.66666667 24 26 C24.99 26.66 25.98 27.32 27 28 C27 28.66 27 29.32 27 30 C27.99 30.33 28.98 30.66 30 31 C30 31.66 30 32.32 30 33 C30.5775 33.2475 31.155 33.495 31.75 33.75 C34.3002997 35.16683317 36.01785701 36.87627537 38 39 C37.67 39.99 37.34 40.98 37 42 C32.84910324 37.89895235 28.70513529 33.79106569 24.56713867 29.67700195 C23.16174575 28.28159807 21.75455455 26.8880027 20.34545898 25.49633789 C3.20953235 8.56694139 3.20953235 8.56694139 0 3 C0 2.01 0 1.02 0 0 Z " fill="#FDA017" transform="translate(156,153)"/>
<path d="M0 0 C2 3 2 3 3.125 6.75 C7.68483401 20.49623131 15.30917855 30.20446334 25.40380859 40.34033203 C27.75084963 42.78070905 29.87227305 45.36738869 32 48 C27.999113 47.48202802 26.51619136 45.66212161 24 42.625 C21.50558833 39.63365476 19.12696189 37.30547191 16 35 C14.96210419 33.35666496 13.96432076 31.68756133 13 30 C12.34 29.175 11.68 28.35 11 27.5 C5.83713481 21.04641852 -0.42031376 11.72367301 -0.375 3.25 C-0.25125 2.1775 -0.1275 1.105 0 0 Z " fill="#F36F1A" transform="translate(146,132)"/>
<path d="M0 0 C3.28624239 2.6539042 4.20935677 5.76380883 5.5625 9.6875 C5.97628906 10.86699219 6.39007813 12.04648438 6.81640625 13.26171875 C9.50536098 21.75455598 10.31158953 28.84004845 10.25 37.75 C10.25773437 38.8534375 10.26546875 39.956875 10.2734375 41.09375 C10.25618159 48.4447671 9.96997547 55.87540951 8 63 C7.01 63.495 7.01 63.495 6 64 C6.144375 63.06542969 6.28875 62.13085938 6.4375 61.16796875 C10.14102469 37.83195213 10.14102469 37.83195213 4 16 C3.5859375 13.73828125 3.5859375 13.73828125 3.375 11.3125 C3.30023438 10.50425781 3.22546875 9.69601563 3.1484375 8.86328125 C3.07496094 7.94095703 3.07496094 7.94095703 3 7 C2.34 7 1.68 7 1 7 C0.67 4.69 0.34 2.38 0 0 Z " fill="#F3CF6D" transform="translate(297,73)"/>
<path d="M0 0 C3.71601529 6.93656188 3.18344192 13.64842118 3.1875 21.375 C3.19974609 22.59445313 3.21199219 23.81390625 3.22460938 25.0703125 C3.22654297 26.25109375 3.22847656 27.431875 3.23046875 28.6484375 C3.23457764 29.72270996 3.23868652 30.79698242 3.24291992 31.90380859 C2.84744184 36.94446488 0.91034796 41.36058352 -1 46 C-2.19041901 42.42874298 -1.72167138 40.75472141 -1.0625 37.0625 C0.88047118 24.84976542 0.16768814 12.32249853 0 0 Z " fill="#F1A771" transform="translate(304,203)"/>
<path d="M0 0 C0.66 0.33 1.32 0.66 2 1 C-2.75 6.875 -2.75 6.875 -5 8 C-5.53625 9.0725 -6.0725 10.145 -6.625 11.25 C-8.7386696 15.16627084 -11.35613328 16.6092225 -15.16015625 18.734375 C-17.88632982 20.60970459 -18.86976657 22.96249766 -20 26 C-21.32 26 -22.64 26 -24 26 C-24.66 24.68 -25.32 23.36 -26 22 C-25.21625 21.9175 -24.4325 21.835 -23.625 21.75 C-22.75875 21.5025 -21.8925 21.255 -21 21 C-20.56107422 20.1028125 -20.56107422 20.1028125 -20.11328125 19.1875 C-18.71011052 16.4303926 -17.0060478 15.12780028 -14.5625 13.25 C-13.38880859 12.32960937 -13.38880859 12.32960937 -12.19140625 11.390625 C-10 10 -10 10 -7 10 C-6.89816406 9.40703125 -6.79632813 8.8140625 -6.69140625 8.203125 C-5.88644348 5.63815889 -4.88433098 4.57256517 -2.9375 2.75 C-2.38964844 2.22921875 -1.84179688 1.7084375 -1.27734375 1.171875 C-0.85582031 0.78515625 -0.43429688 0.3984375 0 0 Z " fill="#FB9725" transform="translate(249,202)"/>
<path d="M0 0 C0.33 0 0.66 0 1 0 C1.01981934 0.58378418 1.03963867 1.16756836 1.06005859 1.76904297 C1.15662861 4.47140268 1.26575973 7.17312394 1.375 9.875 C1.4059375 10.7928125 1.436875 11.710625 1.46875 12.65625 C1.84075512 21.4603712 2.90526166 29.13810238 7 37 C7.83466178 39.51224932 8.57442052 42.04153362 9.3046875 44.5859375 C10.12086607 47.41963612 11.04557551 50.21014378 12 53 C7.0754342 50.5377171 5.35058844 43.08938026 3.5625 38.17578125 C-0.64677561 25.53178751 -0.54660131 13.20925139 0 0 Z " fill="#FC9C16" transform="translate(144,100)"/>
<path d="M0 0 C0.33 0.66 0.66 1.32 1 2 C-3.4654886 7.22557177 -8.08760767 12.19388539 -13 17 C-14.299375 18.299375 -14.299375 18.299375 -15.625 19.625 C-18.08333333 22.08333333 -20.54166667 24.54166667 -23 27 C-23.99 26.67 -24.98 26.34 -26 26 C-25.360625 25.731875 -24.72125 25.46375 -24.0625 25.1875 C-21.66868314 24.11332248 -21.66868314 24.11332248 -21 21 C-20.34 21 -19.68 21 -19 21 C-19 20.34 -19 19.68 -19 19 C-18.34 19 -17.68 19 -17 19 C-16.7525 18.38125 -16.505 17.7625 -16.25 17.125 C-14.76259631 14.59641373 -13.56321991 14.28160996 -11 13 C-10.566875 12.1028125 -10.566875 12.1028125 -10.125 11.1875 C-8.4714772 7.97231678 -5.77733283 6.26721048 -3 4 C-1.1873495 1.83779383 -1.1873495 1.83779383 0 0 Z " fill="#FD7C3B" transform="translate(220,231)"/>
<path d="M0 0 C0.33 0.99 0.66 1.98 1 3 C0.278125 3.4125 -0.44375 3.825 -1.1875 4.25 C-4.06218775 5.95660009 -4.06218775 5.95660009 -6.6875 8.1875 C-9 10 -9 10 -11 10 C-11.268125 10.804375 -11.53625 11.60875 -11.8125 12.4375 C-12.204375 13.283125 -12.59625 14.12875 -13 15 C-16 16 -16 16 -18.38671875 14.85546875 C-21.16549941 12.88249295 -23.43970994 10.75611961 -25.8125 8.3125 C-26.99779297 7.10013672 -26.99779297 7.10013672 -28.20703125 5.86328125 C-28.79871094 5.24839844 -29.39039063 4.63351563 -30 4 C-29.01 3.67 -28.02 3.34 -27 3 C-26.443125 3.7425 -25.88625 4.485 -25.3125 5.25 C-23.09173001 8.07544208 -23.09173001 8.07544208 -20.25 10.1875 C-19.5075 10.785625 -18.765 11.38375 -18 12 C-18 12.66 -18 13.32 -18 14 C-15.54775306 13.89386164 -15.54775306 13.89386164 -13 13 C-12.731875 12.2471875 -12.46375 11.494375 -12.1875 10.71875 C-10.62368756 7.13844257 -8.57172514 5.88060213 -5.375 3.6875 C-4.37210938 2.99011719 -3.36921875 2.29273438 -2.3359375 1.57421875 C-1.56507813 1.05472656 -0.79421875 0.53523437 0 0 Z " fill="#FDAB12" transform="translate(241,209)"/>
<path d="M0 0 C0 3 0 3 -1.96875 5.26171875 C-2.8040625 6.06222656 -3.639375 6.86273438 -4.5 7.6875 C-5.3353125 8.49574219 -6.170625 9.30398437 -7.03125 10.13671875 C-7.6809375 10.75160156 -8.330625 11.36648437 -9 12 C-9 8.06830895 -7.60580385 6.83572772 -5 4 C-4.34 4 -3.68 4 -3 4 C-3 3.34 -3 2.68 -3 2 C-2.01 1.34 -1.02 0.68 0 0 Z M-12 12 C-11.34 12.33 -10.68 12.66 -10 13 C-11.72294915 14.77726278 -13.45287096 16.54669663 -15.1875 18.3125 C-15.67025391 18.81201172 -16.15300781 19.31152344 -16.65039062 19.82617188 C-19.54882553 22.76351194 -22.36101656 25.05078218 -26 27 C-25.61402985 24.20171644 -25.19863427 23.1794116 -23.0625 21.25 C-21 20 -21 20 -19 20 C-19 19.34 -19 18.68 -19 18 C-17.46875 16.4921875 -17.46875 16.4921875 -15.5 14.875 C-14.8503125 14.33617187 -14.200625 13.79734375 -13.53125 13.2421875 C-12.77328125 12.62730469 -12.77328125 12.62730469 -12 12 Z " fill="#F97331" transform="translate(61,160)"/>
<path d="M0 0 C11.51937496 2.43679086 21.31624861 7.38531155 31 14 C29.68 14.33 28.36 14.66 27 15 C26.67 14.01 26.34 13.02 26 12 C23.95109162 11.28288207 21.89554405 10.58110632 19.81640625 9.95703125 C15.34974008 8.43923207 11.1657808 6.34485529 6.91796875 4.3046875 C4.5708276 3.25522948 2.50700317 2.4977585 0 2 C0 1.34 0 0.68 0 0 Z " fill="#EFB934" transform="translate(243,32)"/>
<path d="M0 0 C0.66 0.33 1.32 0.66 2 1 C-0.39988969 5.67346939 -0.39988969 5.67346939 -3.125 7.15625 C-7.35334127 9.86790364 -10.44129173 13.49368807 -13.8125 17.1875 C-14.50537109 17.93708984 -15.19824219 18.68667969 -15.91210938 19.45898438 C-17.61346761 21.30114467 -19.30916084 23.14818913 -21 25 C-21 21.06095781 -19.44808464 18.9241011 -17 16 C-15.02124816 14.12667346 -12.98226012 12.36012352 -10.89453125 10.609375 C-8.86796527 8.93915289 -8.86796527 8.93915289 -6.6875 6.625 C-5 5 -5 5 -2 4 C-0.79117904 1.99983534 -0.79117904 1.99983534 0 0 Z " fill="#FC9924" transform="translate(276,175)"/>
<path d="M0 0 C0.33 0.99 0.66 1.98 1 3 C1.99 3.33 2.98 3.66 4 4 C7.7066111 8.05256147 14 15.34133255 14 21 C13.34 21 12.68 21 12 21 C10.5625 18.84765625 10.5625 18.84765625 9 16.0625 C7.13922105 12.37612792 7.13922105 12.37612792 4 10 C4 9.34 4 8.68 4 8 C3.34 8 2.68 8 2 8 C0.3125 6.25 0.3125 6.25 -1 4 C-0.6875 1.75 -0.6875 1.75 0 0 Z " fill="#F19E5C" transform="translate(284,167)"/>
<path d="M0 0 C1.33333333 0 2.66666667 0 4 0 C4 3.96 4 7.92 4 12 C4.99 12.33 5.98 12.66 7 13 C7 14.65 7 16.3 7 18 C2.99666708 14.31271968 0.19004088 11.51247978 -0.11328125 5.90625 C-0.12368134 3.93716538 -0.06671124 1.96798171 0 0 Z " fill="#F96B31" transform="translate(33,278)"/>
<path d="M0 0 C1.88450291 3.76900583 0.90038419 8.81667111 0.69726562 12.99609375 C0.57862392 18.29542324 1.45683707 21.79048669 4.1315918 26.38427734 C5 28 5 28 5 30 C2.30371409 29.01136183 1.20308889 28.37411112 -0.1875 25.8125 C-2.70582043 17.09523697 -2.91566019 8.56475181 0 0 Z " fill="#F3C85C" transform="translate(195,100)"/>
<path d="M0 0 C0.66 0 1.32 0 2 0 C0.94013832 3.17958505 -0.27437605 5.36336288 -2.3125 8.0625 C-5.90163487 12.86937706 -7.85505299 18.44139263 -10 24 C-11.68363646 20.63272708 -10.21627158 17.60573043 -9.2265625 14.109375 C-7.12944879 8.79312496 -3.84010204 4.21514386 0 0 Z " fill="#F26E19" transform="translate(159,60)"/>
<path d="M0 0 C0.33 1.32 0.66 2.64 1 4 C0.34 4 -0.32 4 -1 4 C-1.226875 4.70125 -1.45375 5.4025 -1.6875 6.125 C-3.28470477 9.62363901 -5.50788129 12.08239761 -8 15 C-9.03655068 16.64418383 -10.05184571 18.30330285 -11 20 C-11 13.70713818 -8.36804543 9.8025675 -4.375 5.125 C-3.55773437 4.15820312 -2.74046875 3.19140625 -1.8984375 2.1953125 C-1.27195312 1.47085937 -0.64546875 0.74640625 0 0 Z " fill="#ED9C5F" transform="translate(297,260)"/>
<path d="M0 0 C2.4375 0.8125 2.4375 0.8125 5 2 C5.33 2.99 5.66 3.98 6 5 C6.66 5 7.32 5 8 5 C8 5.66 8 6.32 8 7 C8.61875 7.226875 9.2375 7.45375 9.875 7.6875 C12.69339387 9.42827269 13.11944786 10.84468818 14 14 C14.125 16.8125 14.125 16.8125 14 19 C11.08807339 15.45504587 11.08807339 15.45504587 10.625 13.0625 C9.6550253 9.86158351 7.41657869 8.25181196 5 6 C3.31471312 4.35216394 1.64302953 2.68997323 0 1 C0 0.67 0 0.34 0 0 Z " fill="#F4C757" transform="translate(242,84)"/>
<path d="M0 0 C0.33 0.99 0.66 1.98 1 3 C-3.95 7.95 -8.9 12.9 -14 18 C-14.66 17.67 -15.32 17.34 -16 17 C-15.67 16.34 -15.34 15.68 -15 15 C-14.34 15 -13.68 15 -13 15 C-13 14.34 -13 13.68 -13 13 C-12.34 13 -11.68 13 -11 13 C-10.67 12.01 -10.34 11.02 -10 10 C-9.34 10 -8.68 10 -8 10 C-7.731875 9.360625 -7.46375 8.72125 -7.1875 8.0625 C-6 6 -6 6 -3 5 C-1.8499169 3.03327085 -1.8499169 3.03327085 -1 1 C-0.67 0.67 -0.34 0.34 0 0 Z " fill="#FD7C3C" transform="translate(193,258)"/>
<path d="M0 0 C4.48100701 1.40831649 6.82626295 3.58823267 10 7 C13.18062078 10.43163857 13.18062078 10.43163857 17 13 C17 14.32 17 15.64 17 17 C13.65678045 15.88559348 12.93980381 15.02527657 10.75 12.375 C7.75964861 8.83631126 4.61807302 5.56337155 1.28515625 2.34765625 C0 1 0 1 0 0 Z " fill="#FD9D19" transform="translate(194,195)"/>
<path d="M0 0 C-2 2 -2 2 -5.625 3.1875 C-10.71023937 4.97571604 -14.18288272 8.29455371 -18 12 C-18.33 11.34 -18.66 10.68 -19 10 C-18.67 9.01 -18.34 8.02 -18 7 C-17.01 7 -16.02 7 -15 7 C-15 6.34 -15 5.68 -15 5 C-14.34 5 -13.68 5 -13 5 C-13 4.34 -13 3.68 -13 3 C-4.57142857 -0.42857143 -4.57142857 -0.42857143 0 0 Z " fill="#EDB52B" transform="translate(219,80)"/>
<path d="M0 0 C0.33 0.99 0.66 1.98 1 3 C-1.97 6.3 -4.94 9.6 -8 13 C-9.32 12.67 -10.64 12.34 -12 12 C-10.71034824 10.62437146 -9.37310707 9.29233607 -8 8 C-7.34 8 -6.68 8 -6 8 C-5.731875 7.360625 -5.46375 6.72125 -5.1875 6.0625 C-4 4 -4 4 -1 3 C-0.67 2.01 -0.34 1.02 0 0 Z " fill="#FD7C3A" transform="translate(159,292)"/>
<path d="M0 0 C0 3 0 3 -1.609375 4.68359375 C-2.31578125 5.26238281 -3.0221875 5.84117187 -3.75 6.4375 C-6.63588709 8.85263955 -9.3903479 11.28161239 -12 14 C-12.99 13.67 -13.98 13.34 -15 13 C-13.37660195 11.29115995 -11.70680947 9.62553283 -10 8 C-9.34 8 -8.68 8 -8 8 C-7.7525 7.4225 -7.505 6.845 -7.25 6.25 C-5.58207452 3.24773413 -3.67725381 0 0 0 Z " fill="#FD7C3B" transform="translate(177,276)"/>
<path d="M0 0 C0 4.02197773 -1.2932859 5.07959795 -4 8 C-5.96722008 9.38123963 -7.96868328 10.71488126 -10 12 C-11.68083079 13.31543279 -13.3524116 14.64316249 -15 16 C-13.85056399 12.89652278 -12.67532234 11.73058662 -10.0625 9.5625 C-7.14685811 7.12288128 -5.90080852 5.19681432 -4 2 C-1.8125 0.6875 -1.8125 0.6875 0 0 Z " fill="#FDA712" transform="translate(257,193)"/>
<path d="M0 0 C0.5625 1.9375 0.5625 1.9375 1 4 C0.67 4.33 0.34 4.66 0 5 C-0.5619518 7.51859228 -1.07976773 10.02873303 -1.5625 12.5625 C-1.77036133 13.62887695 -1.77036133 13.62887695 -1.98242188 14.71679688 C-2.32505054 16.47719932 -2.66296553 18.23851797 -3 20 C-3.66 20 -4.32 20 -5 20 C-5 17.36 -5 14.72 -5 12 C-4.34 12 -3.68 12 -3 12 C-2.87625 10.7625 -2.7525 9.525 -2.625 8.25 C-2.24253695 5.1237803 -1.69450477 2.71120763 0 0 Z " fill="#FD9E11" transform="translate(150,80)"/>
<path d="M0 0 C2.75026417 -0.05404449 5.49946203 -0.09369306 8.25 -0.125 C9.02730469 -0.14175781 9.80460938 -0.15851563 10.60546875 -0.17578125 C17.72431144 -0.23662606 17.72431144 -0.23662606 21 2 C21 2.66 21 3.32 21 4 C21.66 4.33 22.32 4.66 23 5 C20.05340937 4.58884782 17.42818161 4.18515961 14.6875 3 C11.6199161 1.85857343 8.94766402 1.58995587 5.6875 1.375 C4.08455078 1.26285156 4.08455078 1.26285156 2.44921875 1.1484375 C1.23685547 1.07496094 1.23685547 1.07496094 0 1 C0 0.67 0 0.34 0 0 Z " fill="#EFB62E" transform="translate(219,79)"/>
<path d="M0 0 C3.4702967 1.62891478 5.52121799 3.59724363 8.0625 6.4375 C4.43399374 6.4375 2.20082722 5.36796332 -1.125 3.9375 C-2.21167969 3.4734375 -3.29835937 3.009375 -4.41796875 2.53125 C-5.24941406 2.1703125 -6.08085937 1.809375 -6.9375 1.4375 C-3.3046875 -0.6328125 -3.3046875 -0.6328125 0 0 Z " fill="#FCF3DC" transform="translate(257.9375,33.5625)"/>
<path d="M0 0 C0.33 0.99 0.66 1.98 1 3 C-1.64 5.97 -4.28 8.94 -7 12 C-7.66 11.67 -8.32 11.34 -9 11 C-8.34 10.34 -7.68 9.68 -7 9 C-7 8.01 -7 7.02 -7 6 C-5.46875 4.39453125 -5.46875 4.39453125 -3.5 2.8125 C-2.8503125 2.28269531 -2.200625 1.75289063 -1.53125 1.20703125 C-0.77328125 0.60955078 -0.77328125 0.60955078 0 0 Z " fill="#FBE8D6" transform="translate(280,284)"/>
<path d="M0 0 C0.66 0.33 1.32 0.66 2 1 C1.07347299 2.17539996 0.13336613 3.34010577 -0.8125 4.5 C-1.33457031 5.1496875 -1.85664063 5.799375 -2.39453125 6.46875 C-4 8 -4 8 -7 8 C-7 8.66 -7 9.32 -7 10 C-7.66 10 -8.32 10 -9 10 C-7.61811547 6.78956118 -6.07578097 4.95063635 -3.375 2.75 C-2.74335938 2.22921875 -2.11171875 1.7084375 -1.4609375 1.171875 C-0.73777344 0.59179688 -0.73777344 0.59179688 0 0 Z " fill="#FBECB1" transform="translate(209,84)"/>
<path d="M0 0 C4.26823714 0.47424857 6.17492731 2.95761403 9 6 C9.598125 6.598125 10.19625 7.19625 10.8125 7.8125 C11.204375 8.204375 11.59625 8.59625 12 9 C11.67 9.99 11.34 10.98 11 12 C9.16364422 10.19047409 7.33083792 8.37759362 5.5 6.5625 C4.97535156 6.04623047 4.45070312 5.52996094 3.91015625 4.99804688 C2.58775448 3.68423213 1.29164432 2.34406495 0 1 C0 0.67 0 0.34 0 0 Z " fill="#FE9E1A" transform="translate(211,212)"/>
<path d="M0 0 C0.66 0 1.32 0 2 0 C0 4 -2 8 -4 12 C-4.66 12 -5.32 12 -6 12 C-6 10.35 -6 8.7 -6 7 C-4.68 6.67 -3.36 6.34 -2 6 C-1.855625 5.195625 -1.71125 4.39125 -1.5625 3.5625 C-1 1 -1 1 0 0 Z " fill="#EFBA37" transform="translate(296,148)"/>
<path d="M0 0 C3.73487777 0.4979837 5.81237635 0.87491756 9 3 C9 3.99 9 4.98 9 6 C4.64464931 4.83857315 2.35380297 3.92300495 0 0 Z " fill="#EA7C54" transform="translate(42,298)"/>
<path d="M0 0 C3.28465896 2.79196011 5.01321958 6.23196817 7 10 C7 10.66 7 11.32 7 12 C6.34 12 5.68 12 5 12 C3.7109375 10.390625 3.7109375 10.390625 2.375 8.25 C1.92898438 7.55390625 1.48296875 6.8578125 1.0234375 6.140625 C0 4 0 4 0 0 Z " fill="#EEA46A" transform="translate(291,176)"/>
<path d="M0 0 C-8.261959 5.55580866 -8.261959 5.55580866 -13 6 C-9.70862872 2.32140857 -5.25202969 -2.62601484 0 0 Z " fill="#FB9625" transform="translate(189,39)"/>
<path d="M0 0 C0.99 0.495 0.99 0.495 2 1 C2 1.99 2 2.98 2 4 C2.66 4 3.32 4 4 4 C4 4.66 4 5.32 4 6 C4.99 6.33 5.98 6.66 7 7 C7 8.65 7 10.3 7 12 C2.5991297 8.17819158 1.19194469 5.52628901 0 0 Z " fill="#ED7A52" transform="translate(33,284)"/>
<path d="M0 0 C3.33333333 3.33333333 6.66666667 6.66666667 10 10 C8.02 9.34 6.04 8.68 4 8 C4 7.34 4 6.68 4 6 C3.01 6 2.02 6 1 6 C0.67 4.02 0.34 2.04 0 0 Z " fill="#F0BB45" transform="translate(200,130)"/>
<path d="M0 0 C0.66 0 1.32 0 2 0 C1.67 2.64 1.34 5.28 1 8 C0.34 8 -0.32 8 -1 8 C-1 10.64 -1 13.28 -1 16 C-1.33 16 -1.66 16 -2 16 C-2.20413361 10.26157749 -2.27141454 5.39460953 0 0 Z " fill="#F36E18" transform="translate(146,84)"/>
<path d="M0 0 C1 2 1 2 0.36328125 4.12890625 C0.01652344 4.93199219 -0.33023437 5.73507813 -0.6875 6.5625 C-1.02136719 7.36816406 -1.35523438 8.17382812 -1.69921875 9.00390625 C-3 11 -3 11 -5.14453125 11.77734375 C-6.06298828 11.88755859 -6.06298828 11.88755859 -7 12 C-6.67 11.01 -6.34 10.02 -6 9 C-5.34 9 -4.68 9 -4 9 C-3.71125 8.2575 -3.4225 7.515 -3.125 6.75 C-2.17697356 4.43260203 -1.15154089 2.22082885 0 0 Z " fill="#F9EAB3" transform="translate(296,151)"/>
<path d="M0 0 C0.66 0 1.32 0 2 0 C0.54955729 4.10958767 -1.51110752 7.43258745 -4 11 C-4.64453125 9.234375 -4.64453125 9.234375 -5 7 C-4.07421875 5.078125 -4.07421875 5.078125 -2.6875 3.25 C-2.23761719 2.63640625 -1.78773438 2.0228125 -1.32421875 1.390625 C-0.88722656 0.93171875 -0.45023438 0.4728125 0 0 Z " fill="#EF7D18" transform="translate(159,60)"/>
<path d="M0 0 C0.99 0.33 1.98 0.66 3 1 C2.34 1 1.68 1 1 1 C0.7525 1.7425 0.505 2.485 0.25 3.25 C-1.09147301 6.20124062 -2.60905526 7.84814974 -5 10 C-5.99 9.67 -6.98 9.34 -8 9 C-5.36 6.03 -2.72 3.06 0 0 Z " fill="#F89121" transform="translate(168,50)"/>
<path d="M0 0 C0.33 0 0.66 0 1 0 C1.05449838 1.72880982 1.09301688 3.45812712 1.125 5.1875 C1.14820313 6.15042969 1.17140625 7.11335938 1.1953125 8.10546875 C0.9913544 11.12812778 0.26874632 13.26769985 -1 16 C-1.66 16 -2.32 16 -3 16 C-2.690625 15.030625 -2.38125 14.06125 -2.0625 13.0625 C-0.82032903 8.76335509 -0.38315147 4.44657366 0 0 Z " fill="#F2C13B" transform="translate(257,110)"/>
<path d="M0 0 C2.78117672 1.0197648 3.81833102 1.66391238 5.25 4.3125 C6.00511726 7.01833686 6.1595955 9.20707882 6 12 C2.82781157 8.37464179 1.57097403 4.48849722 0 0 Z " fill="#EDBD3B" transform="translate(250,91)"/>
<path d="M0 0 C0.99 0.33 1.98 0.66 3 1 C2.34 1 1.68 1 1 1 C1 1.66 1 2.32 1 3 C0.34 3 -0.32 3 -1 3 C-1.66 4.32 -2.32 5.64 -3 7 C-3.33 6.01 -3.66 5.02 -4 4 C-2.68 2.68 -1.36 1.36 0 0 Z M-8 8 C-7.01 8.33 -6.02 8.66 -5 9 C-5.66 9 -6.32 9 -7 9 C-7.33 9.66 -7.66 10.32 -8 11 C-8 10.01 -8 9.02 -8 8 Z " fill="#FC7936" transform="translate(74,145)"/>
<path d="M0 0 C0.66 0 1.32 0 2 0 C3.12377697 3.30435084 2.89554742 5.0506862 1.5625 8.25 C1.27503906 8.95640625 0.98757813 9.6628125 0.69140625 10.390625 C0.46324219 10.92171875 0.23507812 11.4528125 0 12 C-1.30660357 7.70272603 -0.6596762 4.39784135 0 0 Z " fill="#F1B530" transform="translate(299,136)"/>
<path d="M0 0 C0.33 0 0.66 0 1 0 C3.11161731 9.41002278 3.11161731 9.41002278 4 14 C3.34 13.67 2.68 13.34 2 13 C2 12.01 2 11.02 2 10 C1.01 9.67 0.02 9.34 -1 9 C-0.67 6.03 -0.34 3.06 0 0 Z " fill="#FBEAE5" transform="translate(31,277)"/>
<path d="M0 0 C0.66 0.33 1.32 0.66 2 1 C-3.14285714 7.57142857 -3.14285714 7.57142857 -7 9 C-5.44499019 5.18315774 -2.96404505 2.80804268 0 0 Z " fill="#FC9922" transform="translate(249,202)"/>
<path d="M0 0 C0.33 0.66 0.66 1.32 1 2 C0.22265625 3.9453125 0.22265625 3.9453125 -0.9375 6.125 C-1.31777344 6.84945312 -1.69804687 7.57390625 -2.08984375 8.3203125 C-2.39019531 8.87460938 -2.69054687 9.42890625 -3 10 C-3.62109375 8.203125 -3.62109375 8.203125 -4 6 C-2.0625 2.75 -2.0625 2.75 0 0 Z " fill="#FD9916" transform="translate(155,70)"/>
<path d="M0 0 C-2.62198774 2.15377564 -4.64404172 3.40072174 -8 4 C-8 3.01 -8 2.02 -8 1 C-5.29120665 -0.35439668 -2.99066732 -0.06501451 0 0 Z " fill="#EC945A" transform="translate(267,294)"/>
<path d="M0 0 C0.66 0 1.32 0 2 0 C1.40138258 2.35171131 0.73075648 4.6859378 0 7 C-0.99 7.495 -0.99 7.495 -2 8 C-1.125 1.125 -1.125 1.125 0 0 Z " fill="#EF9F65" transform="translate(300,252)"/>
<path d="M0 0 C2.97 0 5.94 0 9 0 C9 0.33 9 0.66 9 1 C6.03 1 3.06 1 0 1 C0 0.67 0 0.34 0 0 Z " fill="#FFFFFF" transform="translate(198,315)"/>
</svg>
